<svg xmlns="http://www.w3.org/2000/svg" viewBox="0 0 800 500" preserveAspectRatio="xMidYMid meet" role="img" aria-label="Public Choice hero illustration: a collective decision tree branching from one root to many possible outcomes">
  <defs>
    <linearGradient id="bg" x1="0" y1="0" x2="1" y2="1">
      <stop offset="0%" stop-color="#3730A3"/>
      <stop offset="100%" stop-color="#2A2480"/>
    </linearGradient>
    <radialGradient id="glow" cx="0.85" cy="0.15" r="0.7">
      <stop offset="0%" stop-color="#B45309" stop-opacity="0.4"/>
      <stop offset="60%" stop-color="#B45309" stop-opacity="0.05"/>
      <stop offset="100%" stop-color="#B45309" stop-opacity="0"/>
    </radialGradient>
    <radialGradient id="glow2" cx="0.15" cy="0.85" r="0.6">
      <stop offset="0%" stop-color="#6366F1" stop-opacity="0.35"/>
      <stop offset="100%" stop-color="#6366F1" stop-opacity="0"/>
    </radialGradient>
    <filter id="soften" x="-20%" y="-20%" width="140%" height="140%">
      <feGaussianBlur stdDeviation="0.6"/>
    </filter>
  </defs>

  <!-- Background -->
  <rect width="800" height="500" fill="url(#bg)"/>
  <rect width="800" height="500" fill="url(#glow)"/>
  <rect width="800" height="500" fill="url(#glow2)"/>

  <!-- Subtle dot grid -->
  <g opacity="0.10" fill="#FFFFFF">
    <circle cx="40" cy="40" r="1.2"/><circle cx="40" cy="80" r="1.2"/><circle cx="40" cy="120" r="1.2"/><circle cx="40" cy="160" r="1.2"/><circle cx="40" cy="200" r="1.2"/><circle cx="40" cy="240" r="1.2"/><circle cx="40" cy="280" r="1.2"/><circle cx="40" cy="320" r="1.2"/><circle cx="40" cy="360" r="1.2"/><circle cx="40" cy="400" r="1.2"/><circle cx="40" cy="440" r="1.2"/><circle cx="40" cy="480" r="1.2"/><circle cx="80" cy="40" r="1.2"/><circle cx="80" cy="80" r="1.2"/><circle cx="80" cy="120" r="1.2"/><circle cx="80" cy="160" r="1.2"/><circle cx="80" cy="200" r="1.2"/><circle cx="80" cy="240" r="1.2"/><circle cx="80" cy="280" r="1.2"/><circle cx="80" cy="320" r="1.2"/><circle cx="80" cy="360" r="1.2"/><circle cx="80" cy="400" r="1.2"/><circle cx="80" cy="440" r="1.2"/><circle cx="80" cy="480" r="1.2"/><circle cx="120" cy="40" r="1.2"/><circle cx="120" cy="80" r="1.2"/><circle cx="120" cy="120" r="1.2"/><circle cx="120" cy="160" r="1.2"/><circle cx="120" cy="200" r="1.2"/><circle cx="120" cy="240" r="1.2"/><circle cx="120" cy="280" r="1.2"/><circle cx="120" cy="320" r="1.2"/><circle cx="120" cy="360" r="1.2"/><circle cx="120" cy="400" r="1.2"/><circle cx="120" cy="440" r="1.2"/><circle cx="120" cy="480" r="1.2"/><circle cx="160" cy="40" r="1.2"/><circle cx="160" cy="80" r="1.2"/><circle cx="160" cy="120" r="1.2"/><circle cx="160" cy="160" r="1.2"/><circle cx="160" cy="200" r="1.2"/><circle cx="160" cy="240" r="1.2"/><circle cx="160" cy="280" r="1.2"/><circle cx="160" cy="320" r="1.2"/><circle cx="160" cy="360" r="1.2"/><circle cx="160" cy="400" r="1.2"/><circle cx="160" cy="440" r="1.2"/><circle cx="160" cy="480" r="1.2"/><circle cx="200" cy="40" r="1.2"/><circle cx="200" cy="80" r="1.2"/><circle cx="200" cy="120" r="1.2"/><circle cx="200" cy="160" r="1.2"/><circle cx="200" cy="200" r="1.2"/><circle cx="200" cy="240" r="1.2"/><circle cx="200" cy="280" r="1.2"/><circle cx="200" cy="320" r="1.2"/><circle cx="200" cy="360" r="1.2"/><circle cx="200" cy="400" r="1.2"/><circle cx="200" cy="440" r="1.2"/><circle cx="200" cy="480" r="1.2"/><circle cx="240" cy="40" r="1.2"/><circle cx="240" cy="80" r="1.2"/><circle cx="240" cy="120" r="1.2"/><circle cx="240" cy="160" r="1.2"/><circle cx="240" cy="200" r="1.2"/><circle cx="240" cy="240" r="1.2"/><circle cx="240" cy="280" r="1.2"/><circle cx="240" cy="320" r="1.2"/><circle cx="240" cy="360" r="1.2"/><circle cx="240" cy="400" r="1.2"/><circle cx="240" cy="440" r="1.2"/><circle cx="240" cy="480" r="1.2"/><circle cx="280" cy="40" r="1.2"/><circle cx="280" cy="80" r="1.2"/><circle cx="280" cy="120" r="1.2"/><circle cx="280" cy="160" r="1.2"/><circle cx="280" cy="200" r="1.2"/><circle cx="280" cy="240" r="1.2"/><circle cx="280" cy="280" r="1.2"/><circle cx="280" cy="320" r="1.2"/><circle cx="280" cy="360" r="1.2"/><circle cx="280" cy="400" r="1.2"/><circle cx="280" cy="440" r="1.2"/><circle cx="280" cy="480" r="1.2"/><circle cx="320" cy="40" r="1.2"/><circle cx="320" cy="80" r="1.2"/><circle cx="320" cy="120" r="1.2"/><circle cx="320" cy="160" r="1.2"/><circle cx="320" cy="200" r="1.2"/><circle cx="320" cy="240" r="1.2"/><circle cx="320" cy="280" r="1.2"/><circle cx="320" cy="320" r="1.2"/><circle cx="320" cy="360" r="1.2"/><circle cx="320" cy="400" r="1.2"/><circle cx="320" cy="440" r="1.2"/><circle cx="320" cy="480" r="1.2"/><circle cx="360" cy="40" r="1.2"/><circle cx="360" cy="80" r="1.2"/><circle cx="360" cy="120" r="1.2"/><circle cx="360" cy="160" r="1.2"/><circle cx="360" cy="200" r="1.2"/><circle cx="360" cy="240" r="1.2"/><circle cx="360" cy="280" r="1.2"/><circle cx="360" cy="320" r="1.2"/><circle cx="360" cy="360" r="1.2"/><circle cx="360" cy="400" r="1.2"/><circle cx="360" cy="440" r="1.2"/><circle cx="360" cy="480" r="1.2"/><circle cx="400" cy="40" r="1.2"/><circle cx="400" cy="80" r="1.2"/><circle cx="400" cy="120" r="1.2"/><circle cx="400" cy="160" r="1.2"/><circle cx="400" cy="200" r="1.2"/><circle cx="400" cy="240" r="1.2"/><circle cx="400" cy="280" r="1.2"/><circle cx="400" cy="320" r="1.2"/><circle cx="400" cy="360" r="1.2"/><circle cx="400" cy="400" r="1.2"/><circle cx="400" cy="440" r="1.2"/><circle cx="400" cy="480" r="1.2"/><circle cx="440" cy="40" r="1.2"/><circle cx="440" cy="80" r="1.2"/><circle cx="440" cy="120" r="1.2"/><circle cx="440" cy="160" r="1.2"/><circle cx="440" cy="200" r="1.2"/><circle cx="440" cy="240" r="1.2"/><circle cx="440" cy="280" r="1.2"/><circle cx="440" cy="320" r="1.2"/><circle cx="440" cy="360" r="1.2"/><circle cx="440" cy="400" r="1.2"/><circle cx="440" cy="440" r="1.2"/><circle cx="440" cy="480" r="1.2"/><circle cx="480" cy="40" r="1.2"/><circle cx="480" cy="80" r="1.2"/><circle cx="480" cy="120" r="1.2"/><circle cx="480" cy="160" r="1.2"/><circle cx="480" cy="200" r="1.2"/><circle cx="480" cy="240" r="1.2"/><circle cx="480" cy="280" r="1.2"/><circle cx="480" cy="320" r="1.2"/><circle cx="480" cy="360" r="1.2"/><circle cx="480" cy="400" r="1.2"/><circle cx="480" cy="440" r="1.2"/><circle cx="480" cy="480" r="1.2"/><circle cx="520" cy="40" r="1.2"/><circle cx="520" cy="80" r="1.2"/><circle cx="520" cy="120" r="1.2"/><circle cx="520" cy="160" r="1.2"/><circle cx="520" cy="200" r="1.2"/><circle cx="520" cy="240" r="1.2"/><circle cx="520" cy="280" r="1.2"/><circle cx="520" cy="320" r="1.2"/><circle cx="520" cy="360" r="1.2"/><circle cx="520" cy="400" r="1.2"/><circle cx="520" cy="440" r="1.2"/><circle cx="520" cy="480" r="1.2"/><circle cx="560" cy="40" r="1.2"/><circle cx="560" cy="80" r="1.2"/><circle cx="560" cy="120" r="1.2"/><circle cx="560" cy="160" r="1.2"/><circle cx="560" cy="200" r="1.2"/><circle cx="560" cy="240" r="1.2"/><circle cx="560" cy="280" r="1.2"/><circle cx="560" cy="320" r="1.2"/><circle cx="560" cy="360" r="1.2"/><circle cx="560" cy="400" r="1.2"/><circle cx="560" cy="440" r="1.2"/><circle cx="560" cy="480" r="1.2"/><circle cx="600" cy="40" r="1.2"/><circle cx="600" cy="80" r="1.2"/><circle cx="600" cy="120" r="1.2"/><circle cx="600" cy="160" r="1.2"/><circle cx="600" cy="200" r="1.2"/><circle cx="600" cy="240" r="1.2"/><circle cx="600" cy="280" r="1.2"/><circle cx="600" cy="320" r="1.2"/><circle cx="600" cy="360" r="1.2"/><circle cx="600" cy="400" r="1.2"/><circle cx="600" cy="440" r="1.2"/><circle cx="600" cy="480" r="1.2"/><circle cx="640" cy="40" r="1.2"/><circle cx="640" cy="80" r="1.2"/><circle cx="640" cy="120" r="1.2"/><circle cx="640" cy="160" r="1.2"/><circle cx="640" cy="200" r="1.2"/><circle cx="640" cy="240" r="1.2"/><circle cx="640" cy="280" r="1.2"/><circle cx="640" cy="320" r="1.2"/><circle cx="640" cy="360" r="1.2"/><circle cx="640" cy="400" r="1.2"/><circle cx="640" cy="440" r="1.2"/><circle cx="640" cy="480" r="1.2"/><circle cx="680" cy="40" r="1.2"/><circle cx="680" cy="80" r="1.2"/><circle cx="680" cy="120" r="1.2"/><circle cx="680" cy="160" r="1.2"/><circle cx="680" cy="200" r="1.2"/><circle cx="680" cy="240" r="1.2"/><circle cx="680" cy="280" r="1.2"/><circle cx="680" cy="320" r="1.2"/><circle cx="680" cy="360" r="1.2"/><circle cx="680" cy="400" r="1.2"/><circle cx="680" cy="440" r="1.2"/><circle cx="680" cy="480" r="1.2"/><circle cx="720" cy="40" r="1.2"/><circle cx="720" cy="80" r="1.2"/><circle cx="720" cy="120" r="1.2"/><circle cx="720" cy="160" r="1.2"/><circle cx="720" cy="200" r="1.2"/><circle cx="720" cy="240" r="1.2"/><circle cx="720" cy="280" r="1.2"/><circle cx="720" cy="320" r="1.2"/><circle cx="720" cy="360" r="1.2"/><circle cx="720" cy="400" r="1.2"/><circle cx="720" cy="440" r="1.2"/><circle cx="720" cy="480" r="1.2"/><circle cx="760" cy="40" r="1.2"/><circle cx="760" cy="80" r="1.2"/><circle cx="760" cy="120" r="1.2"/><circle cx="760" cy="160" r="1.2"/><circle cx="760" cy="200" r="1.2"/><circle cx="760" cy="240" r="1.2"/><circle cx="760" cy="280" r="1.2"/><circle cx="760" cy="320" r="1.2"/><circle cx="760" cy="360" r="1.2"/><circle cx="760" cy="400" r="1.2"/><circle cx="760" cy="440" r="1.2"/><circle cx="760" cy="480" r="1.2"/>
  </g>

  <!-- Decision tree: root at top centre, branching downward across four layers. -->
  <!-- Connections drawn first so nodes sit on top. -->
  <g stroke="#FFFFFF" stroke-opacity="0.35" stroke-width="2" fill="none">
    <!-- Root to layer 2 -->
    <path d="M 400 90 Q 400 130 270 170"/>
    <path d="M 400 90 L 400 170"/>
    <path d="M 400 90 Q 400 130 530 170"/>
    <!-- Layer 2 to layer 3 -->
    <path d="M 270 170 Q 270 210 180 250"/>
    <path d="M 270 170 Q 270 210 360 250"/>
    <path d="M 400 170 L 400 250"/>
    <path d="M 530 170 Q 530 210 460 250"/>
    <path d="M 530 170 Q 530 210 620 250"/>
    <!-- Layer 3 to layer 4 -->
    <path d="M 180 250 Q 180 290 130 330" stroke-opacity="0.22"/>
    <path d="M 180 250 Q 180 290 230 330" stroke-opacity="0.22"/>
    <path d="M 360 250 L 320 330" stroke-opacity="0.22"/>
    <path d="M 360 250 L 400 330" stroke-opacity="0.22"/>
    <path d="M 400 250 L 480 330" stroke-opacity="0.22"/>
    <path d="M 460 250 L 450 330" stroke-opacity="0.22"/>
    <path d="M 620 250 Q 620 290 570 330" stroke-opacity="0.22"/>
    <path d="M 620 250 Q 620 290 670 330" stroke-opacity="0.22"/>
    <!-- Layer 4 to layer 5 (terminal outcomes) -->
    <path d="M 130 330 L 110 410" stroke-opacity="0.15"/>
    <path d="M 230 330 L 250 410" stroke-opacity="0.15"/>
    <path d="M 320 330 L 310 410" stroke-opacity="0.15"/>
    <path d="M 400 330 L 390 410" stroke-opacity="0.15"/>
    <path d="M 480 330 L 510 410" stroke-opacity="0.15"/>
    <path d="M 570 330 L 580 410" stroke-opacity="0.15"/>
    <path d="M 670 330 L 690 410" stroke-opacity="0.15"/>
  </g>

  <!-- Root node (gold, large) -->
  <circle cx="400" cy="90" r="22" fill="#B45309"/>
  <circle cx="400" cy="90" r="14" fill="#F59E0B"/>

  <!-- Layer 2 nodes -->
  <circle cx="270" cy="170" r="14" fill="#FFFFFF"/>
  <circle cx="400" cy="170" r="14" fill="#F59E0B"/>
  <circle cx="530" cy="170" r="14" fill="#FFFFFF"/>

  <!-- Layer 3 nodes -->
  <circle cx="180" cy="250" r="11" fill="#E0E7FF"/>
  <circle cx="360" cy="250" r="11" fill="#FFFFFF"/>
  <circle cx="400" cy="250" r="11" fill="#F59E0B"/>
  <circle cx="460" cy="250" r="11" fill="#E0E7FF"/>
  <circle cx="620" cy="250" r="11" fill="#FFFFFF"/>

  <!-- Layer 4 nodes -->
  <g fill="#CBD5E1">
    <circle cx="130" cy="330" r="8"/>
    <circle cx="230" cy="330" r="8"/>
    <circle cx="320" cy="330" r="8"/>
    <circle cx="400" cy="330" r="8" fill="#F59E0B"/>
    <circle cx="480" cy="330" r="8"/>
    <circle cx="570" cy="330" r="8"/>
    <circle cx="670" cy="330" r="8"/>
  </g>

  <!-- Layer 5 nodes (terminal outcomes, smallest) -->
  <g fill="#94A3B8" opacity="0.7">
    <circle cx="110" cy="410" r="5"/>
    <circle cx="250" cy="410" r="5"/>
    <circle cx="310" cy="410" r="5"/>
    <circle cx="390" cy="410" r="5"/>
    <circle cx="510" cy="410" r="5"/>
    <circle cx="580" cy="410" r="5"/>
    <circle cx="690" cy="410" r="5"/>
  </g>

  <!-- Caption -->
  <text x="400" y="468" text-anchor="middle" font-family="Inter, sans-serif" font-size="18" font-weight="600" fill="#FFFFFF" fill-opacity="0.7" letter-spacing="2">
    ONE ROOT  ·  MANY RULES  ·  MANY OUTCOMES
  </text>
</svg>
